<svg width="362" height="77" viewBox="0 0 362 77" fill="none" xmlns="http://www.w3.org/2000/svg">
<path d="M-1 28.12L-0.82425 28.0137L-1 3.84484L12.0518 0.263408L21.2231 2.68492V21.2067L27.5224 22.057V30.6339H28.5121V0.785604L33.188 0L49.1165 1.44182V32.0064L51.5446 31.2208V19.3721L58.4775 15.9709L66.303 17.7362V30.4352H69.5451V25.7216H71.705V22.7779L74.8546 21.4701V7.19983L84.3914 2.1581L96.0001 6.28483V25.2318H98.3404V29.1921H103.47V12.5004L111.836 11.6501L127.945 12.8285V16.4931H131.187V32.5933H134.314V16.5578H155.82V31.9417L159.062 29.6496H163.83V25.7863L170.847 24.4785V11.1926L180.749 9.03445L189.296 9.94945V30.9574L191.368 29.5202H194.873V16.9506L200.636 12.7638V9.94945L203.064 8.96513L207.745 10.2129V14.4644L216.292 18.1937V27.0987H217.462V12.6991L219.89 11.6501V9.94945L222.591 9.16384V4.97241L228.71 3.40583L233.478 5.43453V10.4716L235.911 11.1926V28.6699L236.989 28.0137V3.79401L249.865 0.263408L259.036 2.68492V21.2067L265.335 22.057V30.6339H266.325V9.80157L271.006 9.01596L286.934 10.4578V32.0064L289.362 31.2208V19.3721L296.29 15.9709L304.121 17.7362V30.4352H307.358V25.7216H309.518V22.7779L312.668 21.4701V7.19983L322.209 2.1581L333.813 6.28483V25.2318H336.153V29.1921H341.282V12.5004L349.654 11.6501L365.763 12.8285V16.4931H369V132H-1V28.12Z" fill="url(#paint0_linear_124_198)" fill-opacity="0.6"/>
<defs>
<linearGradient id="paint0_linear_124_198" x1="184" y1="99.1038" x2="184" y2="30.942" gradientUnits="userSpaceOnUse">
<stop stop-color="white"/>
<stop offset="1" stop-color="#DBD9F1"/>
</linearGradient>
</defs>
</svg>
